<svg xmlns="http://www.w3.org/2000/svg" viewBox="0 0 512 512"><!-- Font Awesome Free 5.15.4 by @fontawesome - https://fontawesome.com License - https://fontawesome.com/license/free (Icons: CC BY 4.0, Fonts: SIL OFL 1.1, Code: MIT License) --><path fill="#4c4c47" d="m 480.00017,255.99982 -0.013,70 c 0,5.114 -0.583,10.231 -1.729,15.203 l -27.427,118.999 c -6.996,30.358 -33.811,51.798 -64.55399,51.798 h -205.702 c -23.845,0 -45.951,-13.03 -57.69,-34.005 l -54.853004,-97.999 c -19.261,-34.409 -5.824,-67.263 24.733,-92.218 l -55.757,-144.928 c -14.579,-37.887 3.727,-80.611995 41.201,-95.641995 37.642004,-15.098 80.370004,3.635 95.112004,41.942 l 18.679,78.849995 -9.141,-93.999995 c 0,-40.804 32.811,-74.000000337 73.14,-74.000000337 40.33,0 73.141,33.196000337 73.141,74.000000337 v 87.634995 c 26.245,-3.675 51.297,8.692 65.006,30.341 42.59099,-13.319 85.85399,19.068 85.85399,64.024 z m -48.013,0 c 0,-25.16 -36.56699,-25.12 -36.56699,0 0,8.837 -7.163,16 -16,16 h -6.856 c -8.837,0 -16,-7.163 -16,-16 v -28 c 0,-25.159 -36.567,-25.122 -36.567,0 v 28 c 0,8.837 -7.163,16 -16,16 h -6.856 c -8.837,0 -16,-7.163 -16,-16 V 73.999825 c 0,-34.43 -50.281,-34.375 -50.281,0 V 255.99982 c 0,8.837 -7.163,16 -16,16 h -11.632 a -16,16 0 0 1 -14.933,-10.254 l -59.785,-155.357 c -12.14,-31.551995 -59.283004,-13.431995 -46.717004,19.222 l 64.091004,166.549 a -16.001,16.001 0 0 1 -4.812,18.139 l -26.647,21.764 c -7.127,5.82 -9.064,16.348 -4.508,24.488 l 54.854,98 c 3.263,5.828 9.318,9.449 15.805,9.449 h 205.701 c 8.491,0 15.804,-5.994 17.782,-14.576 l 27.42699,-119.001 a -19.743,19.743 0 0 0 0.502,-4.423 v -70 z"/></svg>